<svg width="24" height="24" viewBox="0 0 24 24" fill="none" xmlns="http://www.w3.org/2000/svg">
<path d="M8.205 8.595C8.205 8.695 8.155 8.745 8.055 8.745H2.73C2.69 8.745 2.67 8.765 2.67 8.805V12.03C2.67 12.07 2.69 12.09 2.73 12.09H6.39C6.49 12.09 6.54 12.14 6.54 12.24V13.185C6.54 13.285 6.49 13.335 6.39 13.335H2.73C2.69 13.335 2.67 13.355 2.67 13.395V16.695C2.67 16.735 2.69 16.755 2.73 16.755H8.055C8.155 16.755 8.205 16.805 8.205 16.905V17.85C8.205 17.95 8.155 18 8.055 18H1.38C1.28 18 1.23 17.95 1.23 17.85V7.65C1.23 7.55 1.28 7.5 1.38 7.5H8.055C8.155 7.5 8.205 7.55 8.205 7.65V8.595ZM17.8748 7.65C17.8748 7.55 17.9248 7.5 18.0248 7.5H19.1648C19.2648 7.5 19.3148 7.55 19.3148 7.65V17.85C19.3148 17.95 19.2648 18 19.1648 18H18.0698C17.9998 18 17.9398 17.965 17.8898 17.895L13.1948 10.23C13.1848 10.2 13.1698 10.19 13.1498 10.2C13.1298 10.2 13.1198 10.215 13.1198 10.245L13.1348 17.85C13.1348 17.95 13.0848 18 12.9848 18H11.8448C11.7448 18 11.6948 17.95 11.6948 17.85V7.65C11.6948 7.55 11.7448 7.5 11.8448 7.5H12.9548C13.0248 7.5 13.0848 7.535 13.1348 7.605L17.8148 15.27C17.8248 15.3 17.8398 15.315 17.8598 15.315C17.8798 15.305 17.8898 15.285 17.8898 15.255L17.8748 7.65Z" fill="white"/>
</svg>
