<svg width="24" height="24" viewBox="0 0 24 24" fill="none" xmlns="http://www.w3.org/2000/svg">
<path d="M8.19 8.595C8.19 8.695 8.14 8.745 8.04 8.745H2.73C2.69 8.745 2.67 8.765 2.67 8.805V12.03C2.67 12.07 2.69 12.09 2.73 12.09H6.375C6.475 12.09 6.525 12.14 6.525 12.24V13.185C6.525 13.285 6.475 13.335 6.375 13.335H2.73C2.69 13.335 2.67 13.355 2.67 13.395V17.85C2.67 17.95 2.62 18 2.52 18H1.38C1.28 18 1.23 17.95 1.23 17.85V7.65C1.23 7.55 1.28 7.5 1.38 7.5H8.04C8.14 7.5 8.19 7.55 8.19 7.65V8.595ZM17.1964 18C17.1164 18 17.0614 17.965 17.0314 17.895L14.9314 13.41C14.9214 13.38 14.9014 13.365 14.8714 13.365H12.7114C12.6714 13.365 12.6514 13.385 12.6514 13.425V17.85C12.6514 17.95 12.6014 18 12.5014 18H11.3614C11.2614 18 11.2114 17.95 11.2114 17.85V7.65C11.2114 7.55 11.2614 7.5 11.3614 7.5H15.3964C15.9964 7.5 16.5214 7.625 16.9714 7.875C17.4314 8.125 17.7864 8.475 18.0364 8.925C18.2864 9.375 18.4114 9.895 18.4114 10.485C18.4114 11.185 18.2264 11.78 17.8564 12.27C17.4964 12.75 16.9914 13.075 16.3414 13.245C16.3014 13.265 16.2914 13.29 16.3114 13.32L18.4864 17.82C18.4964 17.84 18.5014 17.865 18.5014 17.895C18.5014 17.965 18.4614 18 18.3814 18H17.1964ZM12.7114 8.745C12.6714 8.745 12.6514 8.765 12.6514 8.805V12.165C12.6514 12.205 12.6714 12.225 12.7114 12.225H15.2164C15.7464 12.225 16.1714 12.07 16.4914 11.76C16.8114 11.44 16.9714 11.02 16.9714 10.5C16.9714 9.97 16.8114 9.545 16.4914 9.225C16.1714 8.905 15.7464 8.745 15.2164 8.745H12.7114Z" fill="white"/>
</svg>
