<svg width="85" height="17" viewBox="0 0 85 17" fill="none" xmlns="http://www.w3.org/2000/svg">
<path d="M0.32 16V0.599999H5.732C6.55333 0.599999 7.294 0.801666 7.954 1.205C8.62133 1.60833 9.14933 2.15467 9.538 2.844C9.934 3.526 10.132 4.28867 10.132 5.132C10.132 5.87267 9.98533 6.54733 9.692 7.156C9.39867 7.76467 8.99533 8.27433 8.482 8.685C7.976 9.08833 7.40033 9.367 6.755 9.521L10.495 16H8.361L4.687 9.675H2.168V16H0.32ZM2.168 7.827H5.545C6.04367 7.827 6.502 7.706 6.92 7.464C7.338 7.21467 7.668 6.881 7.91 6.463C8.15933 6.03767 8.284 5.561 8.284 5.033C8.284 4.49767 8.15933 4.021 7.91 3.603C7.668 3.17767 7.338 2.844 6.92 2.602C6.502 2.35267 6.04367 2.228 5.545 2.228H2.168V7.827ZM17.6821 0.599999H19.9151L25.5141 16H23.5561L22.4121 12.854H15.1851L14.0521 16H12.0831L17.6821 0.599999ZM15.8671 11.006H21.7301L18.7931 2.965L15.8671 11.006ZM33.8738 16.286C32.8324 16.286 31.8534 16.0807 30.9368 15.67C30.0201 15.252 29.2134 14.68 28.5168 13.954C27.8274 13.2207 27.2848 12.37 26.8888 11.402C26.5001 10.434 26.3058 9.4 26.3058 8.3C26.3058 7.2 26.5001 6.166 26.8888 5.198C27.2848 4.23 27.8274 3.383 28.5168 2.657C29.2134 1.92367 30.0201 1.35167 30.9368 0.940999C31.8534 0.522999 32.8324 0.313999 33.8738 0.313999C35.1204 0.313999 36.2681 0.603665 37.3168 1.183C38.3654 1.76233 39.2344 2.53233 39.9238 3.493L38.2848 4.373C37.7714 3.69833 37.1224 3.163 36.3378 2.767C35.5604 2.36367 34.7391 2.162 33.8738 2.162C33.0744 2.162 32.3264 2.32333 31.6298 2.646C30.9404 2.96867 30.3354 3.41233 29.8148 3.977C29.2941 4.54167 28.8871 5.19433 28.5938 5.935C28.3004 6.67567 28.1538 7.464 28.1538 8.3C28.1538 9.14333 28.3004 9.93533 28.5938 10.676C28.8944 11.4167 29.3051 12.0693 29.8258 12.634C30.3538 13.1987 30.9624 13.6423 31.6518 13.965C32.3484 14.2803 33.0891 14.438 33.8738 14.438C34.7684 14.438 35.5971 14.2363 36.3598 13.833C37.1298 13.4223 37.7714 12.887 38.2848 12.227L39.9238 13.118C39.2344 14.0787 38.3654 14.8487 37.3168 15.428C36.2681 16 35.1204 16.286 33.8738 16.286ZM42.4801 16V0.599999H44.3281V16H42.4801ZM47.3063 16V0.599999H49.3083L56.9973 12.656V0.599999H58.8453V16H56.8543L49.1543 3.944V16H47.3063ZM61.486 16V0.599999H70.935V2.448H63.334V6.826H69.56V8.674H63.334V14.152H70.935V16H61.486ZM78.7684 16.286C77.9397 16.286 77.1404 16.1577 76.3704 15.901C75.6004 15.637 74.9257 15.263 74.3464 14.779C73.7744 14.295 73.3674 13.7193 73.1254 13.052L74.8524 12.403C74.9991 12.8137 75.2704 13.173 75.6664 13.481C76.0697 13.7817 76.5427 14.0163 77.0854 14.185C77.6281 14.3537 78.1891 14.438 78.7684 14.438C79.4284 14.438 80.0407 14.3317 80.6054 14.119C81.1774 13.899 81.6394 13.5947 81.9914 13.206C82.3434 12.8173 82.5194 12.3627 82.5194 11.842C82.5194 11.3067 82.3361 10.8703 81.9694 10.533C81.6027 10.1883 81.1334 9.917 80.5614 9.719C79.9894 9.51367 79.3917 9.356 78.7684 9.246C77.7051 9.07 76.7517 8.82067 75.9084 8.498C75.0724 8.168 74.4087 7.70967 73.9174 7.123C73.4334 6.53633 73.1914 5.76267 73.1914 4.802C73.1914 3.90733 73.4481 3.12633 73.9614 2.459C74.4821 1.79167 75.1677 1.27467 76.0184 0.907999C76.8691 0.541333 77.7857 0.357999 78.7684 0.357999C79.5824 0.357999 80.3707 0.486333 81.1334 0.742999C81.9034 0.992333 82.5817 1.359 83.1684 1.843C83.7551 2.327 84.1767 2.91733 84.4334 3.614L82.6844 4.252C82.5377 3.834 82.2627 3.47467 81.8594 3.174C81.4634 2.866 80.9941 2.63133 80.4514 2.47C79.9161 2.30133 79.3551 2.217 78.7684 2.217C78.1157 2.20967 77.5071 2.316 76.9424 2.536C76.3777 2.756 75.9194 3.06033 75.5674 3.449C75.2154 3.83767 75.0394 4.28867 75.0394 4.802C75.0394 5.418 75.2007 5.891 75.5234 6.221C75.8534 6.54367 76.3007 6.78567 76.8654 6.947C77.4301 7.10833 78.0644 7.25133 78.7684 7.376C79.7657 7.54467 80.6897 7.81233 81.5404 8.179C82.3911 8.53833 83.0731 9.01867 83.5864 9.62C84.1071 10.2213 84.3674 10.962 84.3674 11.842C84.3674 12.7367 84.1071 13.5177 83.5864 14.185C83.0731 14.8523 82.3911 15.3693 81.5404 15.736C80.6897 16.1027 79.7657 16.286 78.7684 16.286Z" fill="white"/>
</svg>
